<?xml version="1.0" standalone="no"?>
<!DOCTYPE svg PUBLIC "-//W3C//DTD SVG 20010904//EN"
 "http://www.w3.org/TR/2001/REC-SVG-20010904/DTD/svg10.dtd">
<svg version="1.0" xmlns="http://www.w3.org/2000/svg"
 width="512.000000pt" height="512.000000pt" viewBox="0 0 512.000000 512.000000"
 preserveAspectRatio="xMidYMid meet">
<metadata>
Created by potrace 1.11, written by Peter Selinger 2001-2013
</metadata>
<g transform="translate(0.000000,512.000000) scale(0.100000,-0.100000)"
fill="#000000" stroke="none">
<path d="M2405 4194 c-468 -46 -782 -213 -928 -493 -65 -122 -82 -198 -81
-356 0 -130 3 -147 31 -230 44 -128 94 -207 192 -305 134 -133 268 -216 506
-312 115 -47 138 -56 380 -139 166 -57 321 -131 381 -183 22 -19 53 -58 69
-87 25 -47 30 -67 33 -151 4 -86 2 -102 -20 -150 -47 -100 -151 -172 -285
-198 -100 -20 -352 -8 -433 20 -94 32 -137 56 -191 107 -79 74 -120 165 -135
301 l-7 62 -304 0 -305 0 4 -117 c5 -132 22 -192 90 -324 211 -410 790 -629
1418 -534 245 36 487 156 616 303 127 145 184 304 184 513 0 462 -280 746
-955 969 -352 116 -483 178 -568 269 -57 61 -78 110 -79 182 -4 243 221 380
569 348 196 -18 333 -115 386 -273 10 -27 17 -63 17 -80 0 -17 3 -41 6 -53 l6
-23 309 0 309 0 0 49 c0 73 -27 202 -60 281 -150 369 -507 584 -1005 604 -60
2 -128 2 -150 0z"/>
</g>
</svg>
